# Blender v2.83.2 OBJ File: ''
# www.blender.org
mtllib cloth.mtl
o big_flag
v 0.236005 0.145232 0.842512
v 0.235752 0.218680 0.913575
v 0.109251 0.217950 0.918198
v 0.229239 0.216742 1.734523
v 0.227330 0.191043 1.382786
v 0.359013 0.190769 1.385836
v 0.628569 0.215746 1.745958
v 0.494893 0.216100 1.741006
v 0.625616 0.190845 1.399812
v 0.236805 0.056068 0.920967
v 0.364652 0.056702 0.920143
v 0.495777 0.015712 1.125934
v 0.492912 0.057476 0.920843
v 0.500692 0.010324 1.774111
v 0.496134 0.009176 1.415723
v 0.363226 0.008800 1.409981
v 0.367834 0.010236 1.770925
v 0.757889 0.191251 1.404668
v 0.753136 0.213239 1.116595
v 0.887689 0.191836 1.404266
v 0.365185 0.015261 1.122099
v 0.236276 0.010260 1.770095
v 0.231731 0.008582 1.407676
v 0.102721 0.008468 1.411341
v 0.099705 0.217271 1.737365
v -0.026259 0.217727 1.746711
v 0.098236 0.191345 1.385988
v 0.623971 0.212309 1.115490
v 0.105142 0.211777 1.108305
v 0.232895 0.211798 1.104944
v 1.019229 0.212186 1.741718
v 0.891566 0.213839 1.747882
v 0.880347 0.214277 1.113149
v 0.874975 0.220114 0.911350
v 0.235544 0.015031 1.120811
v 0.765337 0.009890 1.778339
v 0.761028 0.010451 1.425594
v 0.629182 0.009734 1.421926
v 0.107156 0.010488 1.773713
v 0.626150 0.016538 1.129462
v 0.755051 0.017832 1.129755
v 0.620776 0.058428 0.920931
v -0.015333 0.217098 0.928541
v -0.014323 0.143239 0.858512
v 0.746083 0.147018 0.840187
v 0.618319 0.147263 0.840454
v 1.008440 0.019659 1.119280
v 0.882167 0.019222 1.125948
v 0.890358 0.011291 1.423978
v 0.493381 0.211837 1.111210
v 0.362630 0.211729 1.106732
v 0.363643 0.219194 0.912987
v 1.016222 0.012225 1.415334
v 0.895146 0.008974 1.775911
v 1.022128 0.007593 1.768303
v -0.020048 0.211376 1.118418
v 0.747617 0.220767 0.913735
v 0.619875 0.220523 0.914245
v 0.761092 0.215037 1.748836
v -0.023125 0.008771 1.421365
v -0.018677 0.010799 1.783263
v 0.363121 0.146065 0.840689
v 0.490566 0.146865 0.840211
v 0.873460 0.145848 0.837983
v 0.875903 0.058631 0.917928
v 1.000069 0.145432 0.832436
v 1.013928 0.192492 1.396507
v 1.001568 0.219689 0.905721
v 1.006691 0.214347 1.106718
v 0.633592 0.010301 1.777288
v 0.361360 0.216354 1.736450
v -0.027572 0.191742 1.396044
v 0.110015 0.144173 0.847850
v -0.017417 0.014418 1.134787
v 0.107813 0.014827 1.124508
v 0.110314 0.055308 0.925752
v 0.491980 0.219782 0.913987
v -0.014265 0.054372 0.936180
v 0.748539 0.058932 0.920375
v 1.002486 0.058014 0.912234
v 0.492204 0.190680 1.392517
vt 0.250000 0.500000
vt 0.250000 0.625000
vt 0.125000 0.625000
vt 0.250000 1.000000
vt 0.250000 0.875000
vt 0.375000 0.875000
vt 0.625000 1.000000
vt 0.500000 1.000000
vt 0.625000 0.875000
vt 0.250000 0.375000
vt 0.375000 0.375000
vt 0.500000 0.250000
vt 0.500000 0.375000
vt 0.500000 0.000000
vt 0.500000 0.125000
vt 0.375000 0.125000
vt 0.375000 0.000000
vt 0.750000 0.875000
vt 0.750000 0.750000
vt 0.875000 0.875000
vt 0.375000 0.250000
vt 0.250000 0.000000
vt 0.250000 0.125000
vt 0.125000 0.125000
vt 0.125000 1.000000
vt 0.000000 1.000000
vt 0.125000 0.875000
vt 0.625000 0.750000
vt 0.125000 0.750000
vt 0.250000 0.750000
vt 1.000000 1.000000
vt 0.875000 1.000000
vt 0.875000 0.750000
vt 0.875000 0.625000
vt 0.250000 0.250000
vt 0.750000 0.000000
vt 0.750000 0.125000
vt 0.625000 0.125000
vt 0.125000 0.000000
vt 0.625000 0.250000
vt 0.750000 0.250000
vt 0.625000 0.375000
vt 0.000000 0.625000
vt 0.000000 0.500000
vt 0.750000 0.500000
vt 0.625000 0.500000
vt 1.000000 0.250000
vt 0.875000 0.250000
vt 0.875000 0.125000
vt 0.500000 0.750000
vt 0.375000 0.750000
vt 0.375000 0.625000
vt 1.000000 0.125000
vt 0.875000 0.000000
vt 1.000000 0.000000
vt 0.000000 0.750000
vt 0.750000 0.625000
vt 0.625000 0.625000
vt 0.750000 1.000000
vt 0.000000 0.125000
vt 0.000000 0.000000
vt 0.375000 0.500000
vt 0.500000 0.500000
vt 0.875000 0.500000
vt 0.875000 0.375000
vt 1.000000 0.500000
vt 1.000000 0.875000
vt 1.000000 0.625000
vt 1.000000 0.750000
vt 0.625000 0.000000
vt 0.375000 1.000000
vt 0.000000 0.875000
vt 0.125000 0.500000
vt 0.000000 0.250000
vt 0.125000 0.250000
vt 0.125000 0.375000
vt 0.500000 0.625000
vt 0.000000 0.375000
vt 0.750000 0.375000
vt 1.000000 0.375000
vt 0.500000 0.875000
vn 0.0243 -0.0237 0.9994
vn 0.0123 -0.9261 0.3771
vn 0.0294 -0.9233 0.3829
vn -0.0030 -0.9973 0.0731
vn -0.0022 -1.0000 -0.0020
vn -0.0012 -1.0000 -0.0016
vn -0.0061 -0.9974 0.0718
vn -0.0045 -0.9974 0.0724
vn 0.0018 -1.0000 -0.0018
vn 0.0064 0.8635 0.5043
vn -0.0032 0.8659 0.5001
vn -0.0073 0.9938 0.1114
vn -0.0074 0.8685 0.4956
vn -0.0009 1.0000 -0.0028
vn -0.0039 0.9999 0.0097
vn -0.0023 1.0000 0.0094
vn -0.0002 1.0000 -0.0040
vn 0.0038 -1.0000 -0.0027
vn 0.0052 -0.9984 -0.0562
vn 0.0026 -1.0000 -0.0052
vn -0.0048 0.9936 0.1127
vn 0.0004 1.0000 -0.0048
vn -0.0012 1.0000 0.0091
vn 0.0009 1.0000 0.0083
vn -0.0002 -0.9973 0.0736
vn 0.0021 -0.9973 0.0736
vn -0.0024 -1.0000 -0.0010
vn 0.0066 -0.9983 -0.0583
vn -0.0011 -0.9986 -0.0526
vn 0.0001 -0.9985 -0.0547
vn -0.0057 -0.9980 0.0624
vn -0.0093 -0.9979 0.0640
vn 0.0023 -0.9986 -0.0531
vn 0.0087 -0.9298 0.3679
vn -0.0008 0.9936 0.1130
vn 0.0026 1.0000 0.0023
vn -0.0061 0.9999 0.0132
vn -0.0049 0.9999 0.0113
vn 0.0018 1.0000 -0.0056
vn -0.0097 0.9939 0.1100
vn -0.0068 0.9941 0.1081
vn -0.0045 0.8698 0.4934
vn 0.0361 -0.9328 0.3586
vn 0.0841 -0.0204 0.9962
vn 0.0101 -0.0243 0.9997
vn 0.0001 -0.0276 0.9996
vn 0.0029 0.9943 0.1070
vn -0.0028 0.9943 0.1062
vn -0.0045 0.9999 0.0163
vn 0.0044 -0.9983 -0.0575
vn 0.0015 -0.9984 -0.0566
vn 0.0056 -0.9295 0.3689
vn -0.0061 0.9998 0.0194
vn 0.0092 0.9999 0.0065
vn 0.0074 0.9999 0.0079
vn -0.0014 -0.9986 -0.0535
vn 0.0027 -0.9313 0.3642
vn 0.0035 -0.9321 0.3621
vn -0.0054 -0.9977 0.0681
vn 0.0029 1.0000 0.0064
vn 0.0020 1.0000 -0.0056
vn 0.0092 -0.0264 0.9996
vn -0.0020 -0.0285 0.9996
vn 0.0305 -0.0174 0.9994
vn 0.0173 0.8743 0.4851
vn 0.0446 -0.0153 0.9989
vn 0.0045 -0.9999 -0.0110
vn 0.0137 -0.9257 0.3780
vn -0.0023 -0.9987 -0.0518
vn 0.0017 1.0000 -0.0016
vn -0.0042 -0.9973 0.0728
vn -0.0027 -1.0000 0.0058
vn 0.0634 -0.0201 0.9978
vn 0.0055 0.9945 0.1050
vn 0.0039 0.9936 0.1128
vn 0.0260 0.8626 0.5052
vn 0.0031 -0.9327 0.3607
vn 0.0342 0.8730 0.4865
vn 0.0051 0.8718 0.4899
vn 0.0262 0.8731 0.4869
vn 0.0004 -1.0000 -0.0012
usemtl Default_OBJ
s 1
f 1/1/1 2/2/2 3/3/3
f 4/4/4 5/5/5 6/6/6
f 7/7/7 8/8/8 9/9/9
f 1/1/1 10/10/10 11/11/11
f 12/12/12 13/13/13 11/11/11
f 14/14/14 15/15/15 16/16/16
f 17/17/17 14/14/14 16/16/16
f 18/18/18 19/19/19 20/20/20
f 12/12/12 21/21/21 16/16/16
f 22/22/22 23/23/23 24/24/24
f 25/25/25 26/26/26 27/27/27
f 28/28/28 19/19/19 9/9/9
f 29/29/29 30/30/30 27/27/27
f 31/31/31 32/32/32 20/20/20
f 33/33/33 19/19/19 34/34/34
f 23/23/23 35/35/35 24/24/24
f 36/36/36 37/37/37 38/38/38
f 39/39/39 22/22/22 24/24/24
f 40/40/40 41/41/41 42/42/42
f 43/43/43 44/44/44 3/3/3
f 45/45/45 46/46/46 42/42/42
f 47/47/47 48/48/48 49/49/49
f 50/50/50 51/51/51 52/52/52
f 53/53/53 47/47/47 49/49/49
f 54/54/54 55/55/55 49/49/49
f 50/50/50 28/28/28 9/9/9
f 12/12/12 40/40/40 42/42/42
f 56/56/56 29/29/29 27/27/27
f 45/45/45 57/57/57 58/58/58
f 59/59/59 18/18/18 20/20/20
f 60/60/60 61/61/61 24/24/24
f 62/62/62 63/63/63 52/52/52
f 46/46/46 63/63/63 42/42/42
f 64/64/64 45/45/45 65/65/65
f 66/66/66 64/64/64 65/65/65
f 67/67/67 31/31/31 20/20/20
f 68/68/68 69/69/69 34/34/34
f 57/57/57 19/19/19 58/58/58
f 70/70/70 36/36/36 38/38/38
f 37/37/37 41/41/41 38/38/38
f 71/71/71 4/4/4 6/6/6
f 5/5/5 30/30/30 6/6/6
f 13/13/13 63/63/63 11/11/11
f 15/15/15 12/12/12 16/16/16
f 51/51/51 30/30/30 52/52/52
f 32/32/32 59/59/59 20/20/20
f 1/1/1 62/62/62 52/52/52
f 72/72/72 56/56/56 27/27/27
f 44/44/44 73/73/73 3/3/3
f 48/48/48 41/41/41 49/49/49
f 74/74/74 75/75/75 76/76/76
f 77/77/77 63/63/63 58/58/58
f 10/10/10 35/35/35 11/11/11
f 78/78/78 74/74/74 76/76/76
f 44/44/44 78/78/78 76/76/76
f 73/73/73 1/1/1 3/3/3
f 79/79/79 41/41/41 65/65/65
f 2/2/2 30/30/30 3/3/3
f 80/80/80 66/66/66 65/65/65
f 75/75/75 35/35/35 76/76/76
f 69/69/69 67/67/67 20/20/20
f 21/21/21 35/35/35 16/16/16
f 19/19/19 33/33/33 20/20/20
f 33/33/33 69/69/69 20/20/20
f 69/69/69 33/33/33 34/34/34
f 35/35/35 10/10/10 76/76/76
f 10/10/10 1/1/1 76/76/76
f 1/1/1 73/73/73 76/76/76
f 73/73/73 44/44/44 76/76/76
f 63/63/63 62/62/62 11/11/11
f 62/62/62 1/1/1 11/11/11
f 41/41/41 48/48/48 65/65/65
f 48/48/48 47/47/47 65/65/65
f 30/30/30 2/2/2 52/52/52
f 2/2/2 1/1/1 52/52/52
f 35/35/35 75/75/75 24/24/24
f 75/75/75 74/74/74 24/24/24
f 30/30/30 29/29/29 3/3/3
f 29/29/29 56/56/56 3/3/3
f 41/41/41 37/37/37 49/49/49
f 37/37/37 36/36/36 49/49/49
f 35/35/35 23/23/23 16/16/16
f 23/23/23 22/22/22 16/16/16
f 30/30/30 5/5/5 27/27/27
f 5/5/5 4/4/4 27/27/27
f 19/19/19 18/18/18 9/9/9
f 18/18/18 59/59/59 9/9/9
f 19/19/19 28/28/28 58/58/58
f 28/28/28 50/50/50 58/58/58
f 35/35/35 21/21/21 11/11/11
f 21/21/21 12/12/12 11/11/11
f 41/41/41 79/79/79 42/42/42
f 79/79/79 45/45/45 42/42/42
f 45/45/45 79/79/79 65/65/65
f 74/74/74 60/60/60 24/24/24
f 47/47/47 80/80/80 65/65/65
f 56/56/56 43/43/43 3/3/3
f 66/66/66 68/68/68 34/34/34
f 63/63/63 46/46/46 58/58/58
f 46/46/46 45/45/45 58/58/58
f 45/45/45 64/64/64 34/34/34
f 64/64/64 66/66/66 34/34/34
f 19/19/19 57/57/57 34/34/34
f 57/57/57 45/45/45 34/34/34
f 63/63/63 13/13/13 42/42/42
f 13/13/13 12/12/12 42/42/42
f 12/12/12 15/15/15 38/38/38
f 15/15/15 14/14/14 38/38/38
f 41/41/41 40/40/40 38/38/38
f 40/40/40 12/12/12 38/38/38
f 63/63/63 77/77/77 52/52/52
f 77/77/77 50/50/50 52/52/52
f 50/50/50 77/77/77 58/58/58
f 26/26/26 72/72/72 27/27/27
f 55/55/55 53/53/53 49/49/49
f 36/36/36 54/54/54 49/49/49
f 14/14/14 70/70/70 38/38/38
f 22/22/22 17/17/17 16/16/16
f 61/61/61 39/39/39 24/24/24
f 4/4/4 25/25/25 27/27/27
f 8/8/8 71/71/71 6/6/6
f 59/59/59 7/7/7 9/9/9
f 30/30/30 51/51/51 6/6/6
f 51/51/51 50/50/50 6/6/6
f 50/50/50 81/81/81 6/6/6
f 81/81/81 8/8/8 6/6/6
f 8/8/8 81/81/81 9/9/9
f 81/81/81 50/50/50 9/9/9
